#!OML:ASF E:/inclinewalkrobotboard/Project1/Captureday1/Session1/subject1.ASF
:FULLY-SPECIFIED
:DEGREES
241
root 0 0 0 -2.1156282557617003 -3.7440072202520662 0.49928415431381007
lowerback 7.609706230731899 1.5980265647251697 -2.533811722377312
upperback 1.8875993921032639 1.9810729366348778 -0.06330086497583365
thorax -2.3448195519588673 1.0415047247812974 1.2400258241058473
lowerneck -9.298446876566018 -5.535318884759014 -6.439760932912475
upperneck 30.957379852893336 -8.651976098677206 6.133462425080677
head 11.58913764395781 -3.9468616705132353 2.0462709939586463
rclavicle -1.5290720120558104E-15 1.4860789959853246E-15
rhumerus -8.78089319696262 2.380023161125421 -79.74540762203333
rradius 49.381622601634994
rwrist -20.837840320923544
rhand -42.04258067560257 16.059400165806338
rfingers 7.125019999999946
rthumb -14.885285008923743 -13.354043906410409
lclavicle -5.836658725924736E-15 1.1183211192206875E-15
lhumerus -30.96787431017453 11.946047276455994 77.07811682853396
lradius 24.779752533853056
lwrist -4.836143236068226
lhand -24.423201307459003 21.81667374299507
lfingers 7.125019999999957
lthumb 2.0718687148678687 51.75799800826253
rfemur -2.32834950628743 8.157078677416424 34.07606957395504
rtibia 30.98207992466343
rfoot -18.063535084319554 -9.298976274621303
rtoes 4.070801012798295
lfemur -30.163792551641976 1.1792096758867157 -14.440527662102312
ltibia 40.69099205340841
lfoot -3.5710830495917465 -5.765579691390487
ltoes -3.7743335857562097
242
root 0 0 0 -2.1274275486212453 -3.7663214848352142 0.4953575593173691
lowerback 7.612889900488112 1.5884240706719668 -2.5321277512657807
upperback 1.870493751466642 1.9688603303516876 -0.0567280567594427
thorax -2.3654277291957033 1.034880946952017 1.2480083173134457
lowerneck -9.33551643889548 -5.527748539545797 -6.417058632219396
upperneck 31.005587096315832 -8.643323298769621 6.102545864821904
head 11.604309285260461 -3.942335805263745 2.034879127966966
rclavicle -1.4392157644152802E-15 1.4315270362287216E-15
rhumerus -8.461739613841498 2.0015804896387284 -79.66360781813533
rradius 48.981173634639255
rwrist -20.728429227097926
rhand -42.05287181458698 16.165763396312897
rfingers 7.125019999999944
rthumb -14.892266523554925 -13.245006473888349
lclavicle -5.779606450960309E-15 1.0113909890994278E-15
lhumerus -30.888676033992905 11.891915860890567 77.20854063277037
lradius 24.824326682453602
lwrist -4.772074966086077
lhand -24.39897432753695 21.821995578627828
lfingers 7.125019999999956
lthumb 2.0950239827469144 51.76308914136897
rfemur -5.186382481926179 8.025748094996072 33.720688755224685
rtibia 32.78340821829066
rfoot -16.832320405146227 -9.499452193351217
rtoes 4.5779762640386075
lfemur -29.13016664159684 1.4204636390334926 -14.886248948503924
ltibia 42.25577926211818
lfoot -3.303985919623779 -6.485237028662665
ltoes -3.66488061356376
243
root 0 0 0 -2.1452147484438737 -3.797985270234431 0.49122709331457765
lowerback 7.607288909635464 1.5768955692060267 -2.529404173041866
upperback 1.851739091853247 1.9543489724427454 -0.0496071436086436
thorax -2.382435453374947 1.0271357440297586 1.2565378518588481
lowerneck -9.366659664343254 -5.518287368060204 -6.391408365805792
upperneck 31.067278464529874 -8.634595933007287 6.062344483905889
head 11.622545609278587 -3.937795315896735 2.0193957721882847
rclavicle -1.3980853047713328E-15 1.3723882615673821E-15
rhumerus -8.146187895315158 1.6506496627329073 -79.57152678825491
rradius 48.64059640293129
rwrist -20.63637356570934
rhand -42.04809196689144 16.24589828951784
rfingers 7.125019999999942
rthumb -14.88520807676924 -13.162972235168988
lclavicle -5.752648844169088E-15 8.856534228134668E-16
lhumerus -30.78865292075276 11.815434866980155 77.37684449038744
lradius 24.879915764093695
lwrist -4.692071121594671
lhand -24.3606401057696 21.833295669166446
lfingers 7.125019999999955
lthumb 2.1316492091553005 51.77393656445643
rfemur -8.502577884264412 7.878613176496898 33.3131517338107
rtibia 34.74308910649817
rfoot -15.42366944089786 -9.691465764557492
rtoes 5.148370980860252
lfemur -27.87026479576324 1.7625358668264077 -15.328076606390841
ltibia 44.547491015277046
lfoot -3.0710551924439784 -7.254467308054055
ltoes -3.762959798815554
244
root 0 0 0 -2.170615864811616 -3.8385554818062477 0.486392130768092
lowerback 7.591216566040819 1.563577902148448 -2.5251172701240567
upperback 1.8293665747552956 1.9377908128360173 -0.04220867770597059
thorax -2.3969018661717674 1.0183283941219778 1.2648749417004246
lowerneck -9.395705481127536 -5.506707843496284 -6.362421409821246
upperneck 31.141940527054736 -8.6253332943771 6.011092282594728
head 11.64413154428956 -3.932892394149751 1.999176267139163
rclavicle -1.4273350616766096E-15 1.3179626277496482E-15
rhumerus -7.844847119877382 1.3400499484205053 -79.47306420172754
rradius 48.37841457442273
rwrist -20.567436609215243
rhand -42.03051798359592 16.29192466641561
rfingers 7.125019999999941
rthumb -14.866557114238683 -13.115719015974303
lclavicle -5.765736649907563E-15 7.535087850596404E-16
lhumerus -30.674179682250248 11.71955042543444 77.57264123961166
lradius 24.93979079464545
lwrist -4.606009112777541
lhand -24.30463088490568 21.851636792303335
lfingers 7.125019999999954
lthumb 2.185185590908409 51.79160562334378
rfemur -11.766221513281296 7.721168949846047 32.95626923859133
rtibia 36.63098591405315
rfoot -14.042845754531582 -9.799575222124297
rtoes 5.751478714577512
lfemur -26.507699187908642 2.1763187587162403 -15.697326089597091
ltibia 47.48093821290752
lfoot -2.85381418583915 -7.96867510009651
ltoes -4.0676694120398755
245
root 0 0 0 -2.223131479839087 -3.907724025739073 0.4771903098775801
lowerback 7.544188248096448 1.5430047096764663 -2.5141410931895374
upperback 1.7880572451947456 1.9129306954972467 -0.03224995479713988
thorax -2.4127652009158913 1.004964113257433 1.273549253921853
lowerneck -9.43874188736088 -5.4858616301894365 -6.315421830971939
upperneck 31.265930181391667 -8.609898036916567 5.9158998019945015
head 11.680164547229834 -3.9243971788315335 1.9610651167517883
rclavicle -1.6669957981300565E-15 1.2840316419421217E-15
rhumerus -7.553699819783748 1.0823742390340185 -79.3582608462376
rradius 48.24457172884039
rwrist -20.556290647972737
rhand -41.98403935282637 16.25438935300847
rfingers 7.125019999999939
rthumb -14.821932772251074 -13.153147145297265
lclavicle -5.882621964299186E-15 6.172942256517453E-16
lhumerus -30.512534649918642 11.573166779437031 77.8530468077831
lradius 25.01701400122159
lwrist -4.495388170713009
lhand -24.206040009209744 21.88534342813334
lfingers 7.125019999999952
lthumb 2.27946998845632 51.82407503171826
rfemur -15.134036526123351 7.516872879143511 32.726141190140055
rtibia 38.44211122099256
rfoot -12.698698113488726 -9.709737276755673
rtoes 6.656873551466399
lfemur -24.897750773227344 2.8026881845387113 -15.835434173281076
ltibia 52.38860142154066
lfoot -2.631255066109061 -8.47746909234216
ltoes -4.854449646140321
